# xmcd
#
# Track frame offsets: 
#        150
#        42912
#        70439
#        81656
#        101495
#        128581
#        164715
#        231958
#
# Disc length: 3503 seconds
#
# Revision: 0
# Processed by: cddbd v1.5.2PL0 Copyright (c) Steve Scherf et al.
# Submitted via: ExactAudioCopy v0.99pb3
#
DISCID=6f0dad08
DTITLE=Er. J. Orchestra - The Unicorn
DYEAR=2004
DGENRE=
TTITLE0=Adular's Wondering
TTITLE1=Magic Woods
TTITLE2=Madrigal
TTITLE3=The Battle-bunt
TTITLE4=The Coming-bome Pastoral
TTITLE5=Dance with the Unicorn
TTITLE6=Eljazo
TTITLE7=Where do the Angels go?
EXTD=
EXTT0=
EXTT1=
EXTT2=
EXTT3=
EXTT4=
EXTT5=
EXTT6=
EXTT7=
PLAYORDER=
